<svg xmlns="http://www.w3.org/2000/svg" viewBox="0 0 220.63 285.6"><defs><style>.cls-1{fill:#fe6fd9;}.cls-2{fill:#17fde1;}.cls-3{fill:#7d36ff;}</style></defs><title>Asset 1</title><g id="Layer_2" data-name="Layer 2"><g id="Layer_7" data-name="Layer 7"><path class="cls-1" d="M115.58,100.38c12.53-2.09,25.15-3.92,37.85-3.95s25.54,1.81,37.22,6.8,22.14,13.3,28.43,24.33l.07.36a16.69,16.69,0,0,1-7,.41,73.13,73.13,0,0,1-12.85-3.11c4.88,5.92,5.43,7.68,8.82,14.57l.3,1c-11.78,2.54-30.95-3.94-30.95-3.94,4.6,7,8.87,9.29,16.49,12.87l.23.13a24.08,24.08,0,0,1-9.3,1.59v.27c-.6,3.8-1.36,5.2-2.79,8.82a91.71,91.71,0,0,1-20.71,32c-11.52,11.43-25.75,16.9-41.59,19.22A76.47,76.47,0,0,1,37.5,164.07l.17.56c-1.76-5.91-4.6-11.44-6.17-17.48a110.15,110.15,0,0,1-3.17-18.65c-.5-6.12.2-12.24-.19-18.32-.43-6.86-1.18-13.72-1.76-20.57-.58-6.69-1.15-13.46-.19-20.11a59.82,59.82,0,0,1,3.68-13.17,54.57,54.57,0,0,1,5-9.94c6.24-9.54,16.75-15.95,28-18a32,32,0,0,1,7.57-.59,29.38,29.38,0,0,1,7.3,1.41c13.6,4.32,23.91,16.05,29.51,29.17S115.58,100.38,115.58,100.38Z"/><path class="cls-1" d="M116,101.82c29.14-4.84,62.76-8.37,87.84,10.76a55.8,55.8,0,0,1,8,7.47,47,47,0,0,1,3.41,4.3c.52.75,1,1.51,1.51,2.28a5.61,5.61,0,0,1,.93,1.69l1-1.84c-4,1.21-8.41.23-12.34-.74-2.27-.56-4.54-1.21-6.76-2-1.55-.53-2.32,1.45-1.45,2.5a48.74,48.74,0,0,1,5.21,7.47,42,42,0,0,1,3.53,7.42l1.05-1.84c-6.34,1.32-13.17.24-19.41-1.08a94.53,94.53,0,0,1-10.75-2.86,1.52,1.52,0,0,0-1.7,2.2,31.31,31.31,0,0,0,7.66,8.28c3,2.18,6.4,3.46,9.6,5.27l.36-2.75a23.55,23.55,0,0,1-8.9,1.54,1.51,1.51,0,0,0-1.5,1.5,12.81,12.81,0,0,1-.86,3.89c-.44,1.35-1,2.66-1.54,4-1.21,3-2.48,6-3.93,8.91a90.64,90.64,0,0,1-10.26,16.11,70.85,70.85,0,0,1-13.83,13.41A65.26,65.26,0,0,1,137.1,206a82,82,0,0,1-37.95,4.44A75,75,0,0,1,39,163.67c-.7-1.75-3.47-1.1-2.9.79l.17.57,2.9-.8c-1.4-4.62-3.41-9-5-13.56a86,86,0,0,1-3.45-14.85,91.28,91.28,0,0,1-1-15.75,153.74,153.74,0,0,0-.47-15.77c-.43-5.14-1-10.27-1.4-15.4a106.37,106.37,0,0,1-.53-15.35,52.5,52.5,0,0,1,3.29-14.83A53.07,53.07,0,0,1,36.88,46,40.49,40.49,0,0,1,56.13,31.71a38,38,0,0,1,13.27-2.5,30.94,30.94,0,0,1,13,3.49C95.93,39.41,104.76,53,108.51,67.27A215.59,215.59,0,0,1,114,99.7c0,.23,0,.45.07.68.19,1.9,3.19,1.92,3,0a241,241,0,0,0-4.74-30.12,68.73,68.73,0,0,0-7.26-19.43,54,54,0,0,0-16.8-18.22,40.84,40.84,0,0,0-11.57-5.29A31.91,31.91,0,0,0,61.63,27,45.61,45.61,0,0,0,39.4,38.58C32.51,45.17,28.4,54.23,26,63.32c-2.8,10.41-1.57,21.11-.59,31.68.5,5.38,1.09,10.77,1.34,16.17s-.28,10.89.06,16.33a105.82,105.82,0,0,0,2.33,16A98,98,0,0,0,33.73,158c.9,2.31,1.77,4.63,2.49,7,.56,1.84,3.46,1.06,2.9-.8l-.17-.56-2.9.79a78.68,78.68,0,0,0,58,48.18,84.12,84.12,0,0,0,40.13-2.52,69.51,69.51,0,0,0,32-20.5,91.91,91.91,0,0,0,12.67-18.42c1.74-3.34,3.27-6.78,4.67-10.28,1.15-2.9,2.91-6.28,2.83-9.49l-1.5,1.5a25.92,25.92,0,0,0,9.7-1.64,1.52,1.52,0,0,0,.35-2.75c-3-1.7-6.23-2.91-9.1-4.91a27.24,27.24,0,0,1-7.08-7.55l-1.69,2.2a95.07,95.07,0,0,0,11.37,3c6.61,1.36,13.69,2.35,20.38.95a1.51,1.51,0,0,0,1.05-1.84,46.1,46.1,0,0,0-3.83-8.14,51.53,51.53,0,0,0-5.68-8.08l-1.46,2.51c2.45.84,5,1.54,7.48,2.14,4.25,1,8.94,1.86,13.21.56a1.54,1.54,0,0,0,1-1.85,11.71,11.71,0,0,0-2.08-3.72q-1.41-2.1-3-4.08a56.08,56.08,0,0,0-7.1-7.27A66.7,66.7,0,0,0,191,101.75c-14.88-6.29-31.34-7.54-47.31-6.47-9.56.64-19,2.08-28.49,3.65C113.28,99.25,114.09,102.14,116,101.82Z"/><polygon class="cls-2" points="0.1 98.78 25.31 77.67 32.94 97.23 0.1 98.78"/><polygon class="cls-3" points="0 98.8 32.95 97.25 28.57 115.28 0 98.8"/><ellipse class="cls-3" cx="62.9" cy="59.86" rx="10.88" ry="14.29"/><ellipse class="cls-2" cx="63.02" cy="57.94" rx="10.88" ry="12.37"/><circle class="cls-3" cx="63.03" cy="57.24" r="2.32"/><path class="cls-3" d="M95.08,212.63a421.21,421.21,0,0,0-2.88,45.88,1.5,1.5,0,0,0,3,0,421.21,421.21,0,0,1,2.88-45.88c.22-1.91-2.78-1.9-3,0Z"/><path class="cls-3" d="M125.05,202.2c-1,17.54-2,35.23.29,52.71a129.41,129.41,0,0,0,2.73,14.65c.47,1.88,3.36,1.08,2.89-.79-4.21-16.91-4.39-34.44-3.67-51.75.2-5,.48-9.88.76-14.82.11-1.93-2.89-1.93-3,0Z"/><path class="cls-3" d="M129.93,267.7a41.53,41.53,0,0,0-19.52,6.95c-1.59,1.08-.09,3.68,1.51,2.59a38.46,38.46,0,0,1,18-6.54,1.54,1.54,0,0,0,1.5-1.5,1.52,1.52,0,0,0-1.5-1.5Z"/><path class="cls-3" d="M128.63,268.53a63.89,63.89,0,0,0-13,11.13,1.54,1.54,0,0,0,0,2.12,1.51,1.51,0,0,0,2.12,0,60.56,60.56,0,0,1,12.43-10.66,1.5,1.5,0,1,0-1.52-2.59Z"/><path class="cls-3" d="M128.58,269.9A32.76,32.76,0,0,1,124,283.38c-1,1.65,1.59,3.16,2.59,1.51a36.18,36.18,0,0,0,5-15,1.5,1.5,0,0,0-1.5-1.5,1.54,1.54,0,0,0-1.5,1.5Z"/><path class="cls-3" d="M93.39,257.45a41.75,41.75,0,0,0-17.21,5.74,1.5,1.5,0,0,0,1.51,2.59,38.33,38.33,0,0,1,15.7-5.33,1.55,1.55,0,0,0,1.5-1.5,1.5,1.5,0,0,0-1.5-1.5Z"/><path class="cls-3" d="M92.55,257.57a90.79,90.79,0,0,0-11.82,8.73,1.5,1.5,0,0,0,0,2.12,1.53,1.53,0,0,0,2.12,0,85.5,85.5,0,0,1,11.22-8.26c1.64-1,.13-3.61-1.52-2.59Z"/><path class="cls-3" d="M92.59,259a22,22,0,0,1-6.25,12.63,1.5,1.5,0,0,0,2.12,2.12A25.26,25.26,0,0,0,95.59,259a1.5,1.5,0,0,0-1.5-1.5,1.53,1.53,0,0,0-1.5,1.5Z"/><path class="cls-3" d="M162.63,153.65a59.89,59.89,0,0,0,20.83,4.09c.14,0,1.4-5.11,1.4-5.11-10.73.16-22.77.31-31-6.61a173.45,173.45,0,0,1,15,14.18c-8.17,1.35-16.79,1.48-24.47-1.64s-14.19-10-15.13-18.19l-.38,0c.53,13.2,12.9,22,24.94,24.13a38.37,38.37,0,0,0,14.41,0l.16-.18.18-.37a9.28,9.28,0,0,0,.32-3.74"/><path class="cls-3" d="M162.23,155.1a60.17,60.17,0,0,0,18.34,4c1.1.07,3.12.53,4-.35a4.12,4.12,0,0,0,.75-1.83c.36-1.3.69-2.61,1-3.92a1.51,1.51,0,0,0-1.44-1.9c-10,.15-21.73.61-29.91-6.18-1.47-1.22-3.61.88-2.12,2.13a176.48,176.48,0,0,1,15,14.18l.66-2.51c-8.29,1.36-17.44,1.52-25.15-2.31-6.25-3.1-11.66-8.92-12.55-16.07a1.57,1.57,0,0,0-1.5-1.5l-.38,0a1.5,1.5,0,0,0-1.5,1.5c.8,16.54,17.76,25.81,32.71,26.31a29.33,29.33,0,0,0,8.31-.66c2.21-.58,2.16-4,2-5.78s-3.17-1.92-3,0a19.71,19.71,0,0,1-.15,3c0,.65-.09,0,.14,0a12.73,12.73,0,0,0-1.92.29,36.83,36.83,0,0,1-6.3.17,38.36,38.36,0,0,1-10.71-2.13c-5.82-2.08-11.38-5.8-14.78-11.05a20.27,20.27,0,0,1-3.29-10.09l-1.5,1.5.38,0-1.5-1.5A23.62,23.62,0,0,0,137,156c5.57,4.34,12.48,6.27,19.47,6.59a62.55,62.55,0,0,0,12.82-.92,1.51,1.51,0,0,0,.66-2.5A178.2,178.2,0,0,0,155,145l-2.12,2.13c8.9,7.39,21.08,7.21,32,7l-1.45-1.9c-.19.77-.38,1.54-.58,2.31-.14.54-.28,1.08-.43,1.61-.06.24-.15.48-.2.72-.12.5-.36.32.2-.2l1.06-.43a57.43,57.43,0,0,1-20.43-4c-1.8-.72-2.57,2.18-.8,2.89Z"/><path class="cls-3" d="M79,32.8c-4.49-2.17-7-6.53-8.55-11.29A18.64,18.64,0,0,1,71.87,7c1.72-3.09,4.83-5.85,8.36-5.55,3.7.32,6.26,3.76,8,7s3.37,7,6.67,8.67a16,16,0,0,0,5.35,1.3l8.59,1.05c2.85.35,5.93.8,8,2.8,2.92,2.84,2.66,7.57,1.74,11.54s-2.23,8.19-.76,12c1.68,4.34,6.36,6.55,10.35,9a21.29,21.29,0,0,1,6.48,5.56,10.22,10.22,0,0,1,1.92,8.12c-.8,3.35-3.78,5.89-7.09,6.84a17.76,17.76,0,0,1-10.17-.57c-3.32-1.07-6.56-2.81-8.61-5.64A27.9,27.9,0,0,1,108,63.67,62.92,62.92,0,0,0,79.14,32.9"/><path class="cls-3" d="M79.72,31.5c-6-3-9.1-10.55-8.59-17a15.09,15.09,0,0,1,4-9.42c2.36-2.34,5.57-2.91,8.21-.65S87.1,9.79,88.7,12.6s3.86,5.51,7.18,6.58a29,29,0,0,0,5.56.94l6.45.79c3,.38,7,.64,8.74,3.54,1.66,2.71,1.12,6.31.45,9.24-.88,3.8-2.09,7.83-1,11.71,1.88,6.76,9.27,8.79,14.23,12.68,2.79,2.19,5.31,5.46,4.94,9.21-.31,3.21-3.06,5.65-6,6.55-3.72,1.12-7.87.28-11.37-1.18a13.67,13.67,0,0,1-7.49-7.13c-1.47-3.19-2.8-6.38-4.58-9.41a65.33,65.33,0,0,0-6-8.45A64.46,64.46,0,0,0,84.32,34.11q-2.16-1.34-4.42-2.5c-1.71-.89-3.23,1.7-1.51,2.59A62.07,62.07,0,0,1,96.06,47.87a60.12,60.12,0,0,1,6.64,8.93,106.65,106.65,0,0,1,5.18,10.44c3.38,7.16,12.35,11,20,9.94a12.53,12.53,0,0,0,8.82-5.35A10.65,10.65,0,0,0,136.8,61c-1.82-3.44-5.07-5.83-8.35-7.77-2.89-1.73-6.27-3.32-8.27-6.15-2.55-3.59-1.3-8-.37-12,.81-3.42,1.45-7.23.17-10.62s-4.39-5.32-7.92-6c-4.25-.85-8.62-1-12.89-1.67A9.3,9.3,0,0,1,94,14.76a16.36,16.36,0,0,1-3.12-4.34C89.21,7.29,87.71,4,84.79,1.76a8.36,8.36,0,0,0-9.57-.48C72.06,3.21,70,6.59,69,10.06A22,22,0,0,0,74,31a15.23,15.23,0,0,0,4.23,3.11c1.72.87,3.24-1.72,1.51-2.59Z"/><path class="cls-3" d="M18.57,156.32c1.44.79,3.21-.13,4.36-1.35s1.94-2.59,3.2-3.49a.14.14,0,0,1,.21.14l-.49,2.93c-.43,2.58-.86,5.26-.27,7.8s2.46,5,4.91,5.17a5.66,5.66,0,0,0,4.72-2.36A14.91,14.91,0,0,0,37.6,160a51.51,51.51,0,0,0-.07-29.47,24.46,24.46,0,0,0-4.29-8.65,2.62,2.62,0,0,0-1.08-.86.49.49,0,0,0-.24,0l-.87.2a.53.53,0,0,0-.17.08C27.14,124,24.44,128,21.93,132a42.22,42.22,0,0,0-5.34,10.94c-1.1,4-1.1,8.43.8,12A11.14,11.14,0,0,0,18.57,156.32Z"/><path class="cls-3" d="M17.81,157.62a4.91,4.91,0,0,0,5.15-.69,10.91,10.91,0,0,0,1.94-2c.29-.36.58-.73.88-1.08s1.18-.92.5-.91l-1.3-.74.06.13-.15-1.15a46.56,46.56,0,0,0-1.09,8.86c.11,3.6,1.88,7.95,5.8,8.81,4.35,1,7.42-2.93,8.8-6.53a46.4,46.4,0,0,0,2.68-13.24,53.41,53.41,0,0,0-.81-13.71c-.82-4.33-2.09-8.86-4.5-12.59-1-1.47-2.24-3.55-4.25-3.24A7.58,7.58,0,0,0,27.73,122c-3.17,3-5.53,6.7-7.78,10.36-2.55,4.14-4.83,8.54-5.44,13.42-.5,4,0,8.69,3,11.63,1.38,1.36,3.5-.76,2.12-2.12-2.06-2-2.41-5.29-2.26-8.06a25,25,0,0,1,3.51-10.54,72.45,72.45,0,0,1,6-9.29,27.25,27.25,0,0,1,3.6-3.84,6.22,6.22,0,0,1,1.17-.93c-.28.14.15,0,.25,0,.73-.2-.17-.12-.18-.11s.81.92.86,1c2.21,2.94,3.36,6.57,4.23,10.09a49.79,49.79,0,0,1,1.42,11.72,49.63,49.63,0,0,1-1.31,11.51c-.71,3-1.61,7.76-4.94,9-1.67.65-3.2-.34-4.08-1.75a9.43,9.43,0,0,1-1-5.84c.11-1.43.37-2.85.61-4.27.18-1.06.57-2.22.11-3.24a1.48,1.48,0,0,0-1.29-.74c-1.46,0-2.55,1.69-3.38,2.72-.7.86-2.19,3-3.57,2.33C17.58,154.24,16.06,156.83,17.81,157.62Z"/><path class="cls-3" d="M120.72,105.09a46.78,46.78,0,0,1,11.33-1.89,1.5,1.5,0,0,0,0-3,50.33,50.33,0,0,0-12.13,2c-1.85.55-1.06,3.44.8,2.9Z"/><path class="cls-3" d="M128.83,109.91l1-.2.55-.08.23,0a18.82,18.82,0,0,1,2-.13c.66,0,1.32,0,2,.07l.48,0s.48.06.23,0c.37,0,.74.12,1.1.19a1.54,1.54,0,0,0,1.85-1,1.51,1.51,0,0,0-1-1.84A22.53,22.53,0,0,0,128,107a1.5,1.5,0,0,0,.8,2.89Z"/><path class="cls-3" d="M142.76,104.48c-.32,0,.24,0,.3,0l.56,0q.49,0,1,0l1,.09c-.33,0,.24,0,.29,0l.49.1a13.27,13.27,0,0,1,1.94.62c-.28-.11.23.12.28.14l.38.19q.5.27,1,.57a1.52,1.52,0,0,0,2.06-.53,1.55,1.55,0,0,0-.54-2.06,13.77,13.77,0,0,0-9.49-2,1.51,1.51,0,0,0-1,1.85,1.54,1.54,0,0,0,1.84,1Z"/><path class="cls-3" d="M145,113.84c.33.1.65.22,1,.34l.21.08c.17.07.07,0,0,0a3.35,3.35,0,0,1,.47.21,16.7,16.7,0,0,1,1.81,1c.27.17.54.35.8.54l.23.17c.17.13-.2-.16,0,0l.4.32a15.36,15.36,0,0,1,1.48,1.43,1.51,1.51,0,0,0,2.12,0,1.53,1.53,0,0,0,0-2.12,17.43,17.43,0,0,0-7.62-4.82,1.52,1.52,0,0,0-1.85,1,1.54,1.54,0,0,0,1.05,1.84Z"/><path class="cls-3" d="M135.48,120.33l.05,0a1.56,1.56,0,0,1,.2.16l.45.36c.3.24.6.48.89.73.61.51,1.2,1,1.78,1.57q1.72,1.59,3.3,3.32a1.51,1.51,0,0,0,2.12,0,1.53,1.53,0,0,0,0-2.12,55.29,55.29,0,0,0-7.28-6.65,1.5,1.5,0,0,0-2.05.54,1.54,1.54,0,0,0,.54,2Z"/><path class="cls-3" d="M133.57,134l4.7,6.17a1.72,1.72,0,0,0,.9.69,1.54,1.54,0,0,0,1.15-.15,1.52,1.52,0,0,0,.54-2.06l-4.7-6.17a1.72,1.72,0,0,0-.9-.69,1.57,1.57,0,0,0-1.16.16,1.51,1.51,0,0,0-.53,2Z"/><path class="cls-3" d="M141.34,149.66a36.91,36.91,0,0,0,6.11,5.6,1.54,1.54,0,0,0,1.15.15,1.56,1.56,0,0,0,.9-.69,1.54,1.54,0,0,0-.54-2.05l-.42-.32-.16-.12c-.22-.17.16.13,0,0l-.73-.59c-.51-.42-1-.85-1.49-1.3a34.34,34.34,0,0,1-2.71-2.82,1.52,1.52,0,0,0-2.12,0,1.55,1.55,0,0,0,0,2.13Z"/><path class="cls-3" d="M145.32,135.94a17.69,17.69,0,0,0,5.21,4.8,1.5,1.5,0,0,0,1.51-2.59,18.59,18.59,0,0,1-1.56-1.06l.31.23A16.07,16.07,0,0,1,148,134.5l.23.3-.28-.37a1.63,1.63,0,0,0-.9-.69,1.49,1.49,0,0,0-1.15.15,1.47,1.47,0,0,0-.69.89,1.43,1.43,0,0,0,.15,1.16Z"/><path class="cls-3" d="M163.12,140.71a17,17,0,0,0,6.44,4.18,1.52,1.52,0,0,0,1.85-1,1.55,1.55,0,0,0-1-1.85l-.41-.15-.18-.07c-.19-.08.27.12.09,0l-.79-.37a14.22,14.22,0,0,1-1.46-.85c-.23-.15-.46-.3-.68-.47l-.15-.11c-.16-.12.29.23,0,0l-.3-.24a14.22,14.22,0,0,1-1.26-1.2,1.53,1.53,0,0,0-2.13,0,1.55,1.55,0,0,0,0,2.13Z"/><path class="cls-3" d="M153.6,126.51a18.5,18.5,0,0,0,6.14,4.48,1.64,1.64,0,0,0,1.15.15,1.56,1.56,0,0,0,.9-.69,1.54,1.54,0,0,0-.54-2.06,17,17,0,0,1-3.1-1.78l-.35-.26c.06,0,.22.17.07.05l-.19-.15c-.23-.19-.46-.38-.68-.58a17.18,17.18,0,0,1-1.28-1.28,1.5,1.5,0,0,0-2.12,0,1.54,1.54,0,0,0,0,2.12Z"/><path class="cls-3" d="M161.73,118.35a27.62,27.62,0,0,0,8.14,3.31,1.54,1.54,0,0,0,1.85-1,1.52,1.52,0,0,0-1.05-1.84,26.33,26.33,0,0,1-4-1.24l-.22-.09-.52-.23c-.3-.13-.59-.28-.89-.42-.62-.32-1.24-.66-1.84-1a1.5,1.5,0,0,0-1.51,2.59Z"/><path class="cls-3" d="M160.37,107.15l.5-.1.25,0c-.19,0-.2,0,0,0,.33,0,.67-.06,1-.06a8.64,8.64,0,0,1,.88,0l.25,0c-.19,0-.19,0,0,0l.5.09c.33.07.66.16,1,.26l.36.12c.06,0,.55.24.23.09a10.19,10.19,0,0,1,1.75,1,1.5,1.5,0,0,0,2.05-.54,1.54,1.54,0,0,0-.54-2.05,11.15,11.15,0,0,0-9-1.73,1.51,1.51,0,0,0-1.05,1.84,1.53,1.53,0,0,0,1.84,1.05Z"/><path class="cls-3" d="M158,98.72l8.37.88a1.51,1.51,0,0,0,1.5-1.5,1.53,1.53,0,0,0-1.5-1.5L158,95.72a1.51,1.51,0,0,0-1.5,1.5,1.54,1.54,0,0,0,1.5,1.5Z"/><path class="cls-3" d="M178.79,106.08c3.91-1.32,7.58,1.45,10.56,3.65a1.51,1.51,0,0,0,2.05-.54,1.54,1.54,0,0,0-.54-2c-3.66-2.71-8.13-5.55-12.87-4a1.5,1.5,0,1,0,.8,2.89Z"/><path class="cls-3" d="M175.47,116.29q2.06.66,4.05,1.47l.21.09c-.13,0-.11,0,.05,0l.49.21,1,.43c.67.31,1.32.64,2,1a1.5,1.5,0,0,0,1.52-2.59,53.83,53.83,0,0,0-8.46-3.5,1.51,1.51,0,0,0-1.84,1,1.52,1.52,0,0,0,1.05,1.84Z"/><path class="cls-3" d="M169,131.23a30.67,30.67,0,0,0,6.39,4.23,1.54,1.54,0,0,0,2-.54,1.52,1.52,0,0,0-.54-2,29.17,29.17,0,0,1-3.12-1.78c-.49-.31-1-.65-1.43-1a1.49,1.49,0,0,0-.35-.27l.13.1-.13-.1-.17-.13-.71-.59a1.5,1.5,0,0,0-2.12,2.12Z"/><path class="cls-3" d="M177.91,146a16.65,16.65,0,0,0,5.54,4,1.61,1.61,0,0,0,1.16.15,1.53,1.53,0,0,0,.89-.69,1.46,1.46,0,0,0,.15-1.15,1.43,1.43,0,0,0-.69-.9,16.49,16.49,0,0,1-2.78-1.56l-.28-.21s-.27-.2-.06,0,0,0,0,0l-.61-.52a14.1,14.1,0,0,1-1.17-1.15,1.52,1.52,0,0,0-2.12,0,1.54,1.54,0,0,0,0,2.13Z"/><path class="cls-3" d="M184.41,135.81l4.75,1.94A1.5,1.5,0,0,0,191,136.7a1.52,1.52,0,0,0-.15-1.16,1.82,1.82,0,0,0-.9-.69l-4.75-1.94a1.5,1.5,0,0,0-1.69,2.21,1.73,1.73,0,0,0,.9.69Z"/><path class="cls-3" d="M180.12,124.53a24,24,0,0,0,9,4.07,1.5,1.5,0,1,0,.8-2.89c-.78-.18-1.55-.38-2.3-.63l-1.13-.41-.33-.13-.48-.22a22.52,22.52,0,0,1-4.05-2.38,1.51,1.51,0,0,0-2.06.54,1.54,1.54,0,0,0,.54,2Z"/><path class="cls-3" d="M197.19,126.75a18.58,18.58,0,0,1,2,3.28l.18.38c0,.08.07.15.1.23-.07-.17-.08-.18,0,0s.23.6.34.91c.21.61.39,1.24.54,1.87a1.52,1.52,0,0,0,1.84,1,1.54,1.54,0,0,0,1.05-1.85,19.71,19.71,0,0,0-3.43-7.36,1.61,1.61,0,0,0-.89-.69,1.56,1.56,0,0,0-1.16.15,1.52,1.52,0,0,0-.54,2Z"/><path class="cls-3" d="M193.39,135.34a15.09,15.09,0,0,0,7.41,6.22,1.51,1.51,0,0,0,1.85-1.05,1.55,1.55,0,0,0-1.05-1.85l-.1,0c.22.1-.06,0-.11,0l-.46-.22c-.32-.16-.63-.33-.94-.52a9.59,9.59,0,0,1-.85-.56l-.21-.15c-.11-.08-.24-.26,0,0a3.19,3.19,0,0,0-.4-.33,13.14,13.14,0,0,1-1.45-1.44l-.32-.39c-.23-.28.19.26,0,0l-.15-.2c-.21-.29-.4-.59-.59-.9a1.5,1.5,0,0,0-2.59,1.51Z"/><path class="cls-3" d="M192.49,117.39a8.26,8.26,0,0,1,1.63.4l.21.08c.22.09,0,0-.07,0a2.93,2.93,0,0,0,.4.19c.25.13.5.26.74.41l.33.22c.1.07.46.38.12.08.21.19.43.36.64.56a8.22,8.22,0,0,1,.57.61l.14.17c.12.14-.22-.31,0-.06s.17.24.25.37a1.5,1.5,0,1,0,2.59-1.52,9.89,9.89,0,0,0-6.71-4.36,1.67,1.67,0,0,0-1.16.15,1.56,1.56,0,0,0-.69.9,1.54,1.54,0,0,0,.16,1.15,1.4,1.4,0,0,0,.89.69Z"/><path class="cls-3" d="M201.32,111.44l4.74,4.19a1.61,1.61,0,0,0,1.06.44,1.54,1.54,0,0,0,1.06-.44,1.52,1.52,0,0,0,0-2.12l-4.74-4.19a1.61,1.61,0,0,0-1.06-.44,1.54,1.54,0,0,0-1.06.44,1.51,1.51,0,0,0,0,2.12Z"/><path class="cls-3" d="M208.88,125.63a21,21,0,0,0,8,2.72,1.51,1.51,0,0,0,1.5-1.5,1.54,1.54,0,0,0-1.5-1.5c.37.05-.18,0-.24,0l-.44-.08-1-.2c-.58-.15-1.16-.32-1.73-.51l-.84-.32-.24-.1h0l-.35-.16a17.37,17.37,0,0,1-1.71-.9,1.5,1.5,0,0,0-1.51,2.59Z"/><path class="cls-3" d="M121.17,115.79h2a1.54,1.54,0,0,0,1.06-.44,1.14,1.14,0,0,0,.31-.48,1.06,1.06,0,0,0,.13-.58,1.5,1.5,0,0,0-.44-1.06,1.54,1.54,0,0,0-1.06-.44h-2a1.54,1.54,0,0,0-1.06.44,1.08,1.08,0,0,0-.31.48,1.06,1.06,0,0,0-.13.58,1.46,1.46,0,0,0,.44,1.06,1.54,1.54,0,0,0,1.06.44Z"/><path class="cls-3" d="M122.84,124l6.42.09a1.51,1.51,0,0,0,1.5-1.5,1.53,1.53,0,0,0-1.5-1.5l-6.42-.09a1.5,1.5,0,0,0,0,3Z"/><path class="cls-3" d="M123.76,132.33l2.79,1.67a1.51,1.51,0,0,0,1.16.15,1.49,1.49,0,0,0,.89-.69,1.45,1.45,0,0,0,.15-1.15,1.55,1.55,0,0,0-.69-.9l-2.79-1.67a1.5,1.5,0,0,0-2.2,1.69,1.59,1.59,0,0,0,.69.9Z"/><path class="cls-3" d="M43.19,163.68A13.89,13.89,0,0,0,47,173.43a1.52,1.52,0,0,0,2.12,0,1.54,1.54,0,0,0,0-2.13,7.86,7.86,0,0,1-1.24-1.6c-.2-.33-.39-.66-.56-1l-.24-.51c-.07-.16-.08-.18,0,0,0-.08-.07-.17-.1-.26a11.93,11.93,0,0,1-.6-2.2c0-.05-.09-.62,0-.3l-.06-.57c0-.38,0-.76,0-1.14a1.5,1.5,0,0,0-3,0Z"/><path class="cls-3" d="M44.88,146.94a15.35,15.35,0,0,0,1.6,6.89,1.51,1.51,0,0,0,2.06.54,1.54,1.54,0,0,0,.53-2.05l-.19-.4c0-.06-.19-.41,0,0a7.28,7.28,0,0,1-.28-.73,12.59,12.59,0,0,1-.42-1.45c0-.23-.1-.47-.14-.71,0-.08-.11-.58,0-.15,0-.11,0-.22,0-.33-.05-.52-.07-1-.07-1.56a1.51,1.51,0,0,0-1.5-1.5,1.53,1.53,0,0,0-1.5,1.5Z"/><path class="cls-3" d="M46.6,182a13.47,13.47,0,0,0,5.12,5.41,1.5,1.5,0,1,0,1.52-2.59A13.23,13.23,0,0,1,52,184l.3.23a12,12,0,0,1-2.19-2.2l.23.31a12.63,12.63,0,0,1-1.16-1.84,1.51,1.51,0,0,0-2-.54A1.54,1.54,0,0,0,46.6,182Z"/><path class="cls-3" d="M53.33,166.31a18.37,18.37,0,0,0,1.48,4.57,1.5,1.5,0,0,0,.89.69,1.5,1.5,0,0,0,1.85-1,1.76,1.76,0,0,0-.15-1.15c-.09-.19-.18-.38-.26-.57l.15.36a17.18,17.18,0,0,1-1.07-3.65,1.47,1.47,0,0,0-.69-.89,1.49,1.49,0,0,0-1.15-.15,1.46,1.46,0,0,0-.9.69,1.69,1.69,0,0,0-.15,1.15Z"/><path class="cls-3" d="M59.33,184.81a22.88,22.88,0,0,0,6.89,7.59,1.5,1.5,0,0,0,2-.54,1.53,1.53,0,0,0-.54-2.05l-.47-.34-.23-.18c-.15-.11.2.17,0,0l-.9-.75a21.41,21.41,0,0,1-1.65-1.65c-.26-.29-.51-.59-.76-.89l-.14-.18c-.25-.31.18.25-.05-.07l-.32-.42a22.28,22.28,0,0,1-1.27-2,1.5,1.5,0,1,0-2.59,1.52Z"/><path class="cls-3" d="M63.87,166.88a18.11,18.11,0,0,0,5.72,9.32,1.5,1.5,0,0,0,2.12-2.12,16.53,16.53,0,0,1-1.78-1.77c-.14-.16-.27-.33-.4-.49s.12.17,0,0-.14-.19-.2-.28c-.25-.34-.48-.69-.7-1.05s-.4-.68-.59-1c-.09-.19-.19-.37-.28-.56s-.1-.21-.14-.32-.13-.28-.07-.14-.07-.18-.08-.21-.07-.17-.1-.26l-.21-.59c-.14-.42-.26-.85-.36-1.28a1.5,1.5,0,0,0-2.9.8Z"/><path class="cls-3" d="M53.53,143.31a13.31,13.31,0,0,0,3.78,8.32,1.51,1.51,0,0,0,2.12,0,1.53,1.53,0,0,0,0-2.12c-.22-.22-.44-.45-.64-.69l-.15-.18c-.24-.3.11.15,0,0l-.28-.38a12.25,12.25,0,0,1-1-1.69l-.1-.22c-.08-.17-.05,0,0,0a1.92,1.92,0,0,1-.17-.44c-.1-.3-.2-.6-.28-.9s-.16-.65-.22-1c0-.08,0-.16,0-.24s0-.3,0-.09,0-.06,0-.09l0-.3a1.5,1.5,0,0,0-3,0Z"/><path class="cls-3" d="M43.54,129.48l.55,3.91a1.5,1.5,0,0,0,1.85,1,1.47,1.47,0,0,0,.89-.69l.16-.35a1.55,1.55,0,0,0,0-.8l-.56-3.91a1.55,1.55,0,0,0-.69-.9,1.61,1.61,0,0,0-1.16-.15,1.54,1.54,0,0,0-.89.69l-.15.36a1.36,1.36,0,0,0,0,.8Z"/><path class="cls-3" d="M34.81,107.59a21,21,0,0,0,.36,7.37A1.52,1.52,0,0,0,37,116a1.54,1.54,0,0,0,1-1.84c-.07-.3-.13-.61-.19-.91l-.06-.39s-.07-.48,0-.13c-.07-.57-.12-1.14-.14-1.72a19.71,19.71,0,0,1,.16-3.43,1.47,1.47,0,0,0-.44-1.06,1.52,1.52,0,0,0-1.06-.44,1.5,1.5,0,0,0-1.06.44,1.77,1.77,0,0,0-.44,1.06Z"/><path class="cls-3" d="M47.66,114.42a91.07,91.07,0,0,0,2.62,10,1.53,1.53,0,0,0,1.84,1,1.52,1.52,0,0,0,1.05-1.85,93.36,93.36,0,0,1-2.62-10,1.5,1.5,0,0,0-2.89.8Z"/><path class="cls-3" d="M63,131.59a20.36,20.36,0,0,0,4.46,12.47,1.5,1.5,0,0,0,2.12,0,1.54,1.54,0,0,0,0-2.12A17.13,17.13,0,0,1,66,131.59a1.5,1.5,0,0,0-3,0Z"/><path class="cls-3" d="M68.19,154.15l3.36,6.13a1.51,1.51,0,0,0,2,.54,1.53,1.53,0,0,0,.54-2.06l-3.36-6.13a1.5,1.5,0,0,0-2.59,1.52Z"/><path class="cls-3" d="M83.88,162.48a44,44,0,0,0,5.53,7.29,1.52,1.52,0,0,0,2.12,0,1.54,1.54,0,0,0,0-2.12q-.73-.79-1.44-1.62l-.69-.83-.31-.4s-.18-.24-.08-.1-.12-.16-.11-.15c-.87-1.15-1.68-2.35-2.43-3.58a1.5,1.5,0,0,0-2.59,1.51Z"/><path class="cls-3" d="M80.82,180.34a27.3,27.3,0,0,0,8.58,8.13,1.5,1.5,0,0,0,2-.53,1.53,1.53,0,0,0-.53-2.06,25.6,25.6,0,0,1-2.24-1.49s-.36-.28-.12-.09l-.21-.17-.52-.43c-.36-.3-.71-.61-1-.94a24.22,24.22,0,0,1-1.85-1.94c-.15-.17-.29-.35-.43-.52l-.21-.26c-.18-.22,0,.07-.06-.07-.28-.38-.55-.76-.82-1.15a1.5,1.5,0,1,0-2.59,1.52Z"/><path class="cls-3" d="M77.12,194.34,81.57,198a1.63,1.63,0,0,0,1.06.44,1.5,1.5,0,0,0,1.06-.44,1.46,1.46,0,0,0,.44-1.06,1.42,1.42,0,0,0-.44-1.06l-4.45-3.64a1.63,1.63,0,0,0-1.06-.44,1.54,1.54,0,0,0-1.06.44,1.47,1.47,0,0,0-.44,1.06,1.39,1.39,0,0,0,.44,1.06Z"/><path class="cls-3" d="M80.19,204.94a13.68,13.68,0,0,0,10.55,3.93,1.5,1.5,0,1,0,0-3c-.4,0-.81,0-1.21,0l-.68,0-.3,0-.17,0-.18,0-.3-.06-.59-.13c-.41-.1-.82-.23-1.23-.37l-.28-.11c-.07,0-.21-.08-.06,0l-.55-.25c-.36-.18-.71-.38-1.06-.59a8.48,8.48,0,0,1-1.81-1.45,1.52,1.52,0,0,0-2.13,0,1.54,1.54,0,0,0,0,2.12Z"/><path class="cls-3" d="M101.12,205.25a29.43,29.43,0,0,0,10,2.62,1.5,1.5,0,0,0,1.5-1.5,1.53,1.53,0,0,0-1.5-1.5,24.54,24.54,0,0,1-4.33-.74,26.08,26.08,0,0,1-4.16-1.47,1.5,1.5,0,1,0-1.51,2.59Z"/><path class="cls-3" d="M100.35,188.9a32.41,32.41,0,0,0,8.43,2.7,1.5,1.5,0,0,0,.79-2.9,31.36,31.36,0,0,1-4-1c-.66-.21-1.31-.44-2-.69l-.42-.17-.27-.11c.13,0,.11,0-.05,0l-.95-.43a1.53,1.53,0,0,0-2.05.54,1.51,1.51,0,0,0,.53,2.05Z"/><path class="cls-3" d="M101.72,172.22a49.09,49.09,0,0,0,8.73,3.49,1.5,1.5,0,0,0,.8-2.9c-1.42-.41-2.82-.88-4.2-1.43l-.5-.2-.29-.12h0l-1-.44c-.68-.32-1.36-.65-2-1a1.5,1.5,0,1,0-1.52,2.59Z"/><path class="cls-3" d="M114.87,199a36.71,36.71,0,0,0,6.59,1.18,1.51,1.51,0,0,0,1.5-1.5,1.53,1.53,0,0,0-1.5-1.5l-.83-.09-.35,0c-.06,0-.47-.05-.08,0-.51-.07-1-.16-1.52-.25-1-.19-2-.42-3-.7a1.5,1.5,0,0,0-.8,2.9Z"/><path class="cls-3" d="M120.46,187.54a12.9,12.9,0,0,0,11.17,2.8,1.51,1.51,0,0,0,1.05-1.85,1.53,1.53,0,0,0-1.84-1,9.94,9.94,0,0,1-8.26-2,1.55,1.55,0,0,0-2.12,0,1.51,1.51,0,0,0,0,2.12Z"/><path class="cls-3" d="M135,204.25a14,14,0,0,0,8.6-.11,1.54,1.54,0,0,0,1-1.85,1.52,1.52,0,0,0-1.85-1,13.31,13.31,0,0,1-1.88.49l-.41.07c.33-.05-.24,0-.3,0-.3,0-.6,0-.9,0l-.91,0-.55-.05c-.07,0-.48-.06-.16,0a14.11,14.11,0,0,1-1.9-.44,1.5,1.5,0,0,0-1.84,1,1.52,1.52,0,0,0,1.05,1.84Z"/><path class="cls-3" d="M144.78,190.77a23.83,23.83,0,0,0,9.18.13,1.5,1.5,0,0,0,1-1.85,1.53,1.53,0,0,0-1.84-1l-.55.09-.24,0h0c-.35.05-.69.08-1,.11-.66,0-1.33.07-2,.06s-1.33-.05-2-.12l-.23,0-.47-.07c-.37-.06-.73-.13-1.1-.21a1.5,1.5,0,0,0-.79,2.9Z"/><path class="cls-3" d="M140.3,179.92a34.49,34.49,0,0,0,6.26.33,1.5,1.5,0,0,0,0-3q-1.44.06-2.88,0l-1.38-.09-.68-.07-.4-.05c-.09,0-.53-.07-.12,0a1.64,1.64,0,0,0-1.15.15,1.5,1.5,0,0,0-.54,2,1.4,1.4,0,0,0,.89.69Z"/><path class="cls-3" d="M161.07,180a20.05,20.05,0,0,0,6-1.14,1.5,1.5,0,1,0-.8-2.89,18,18,0,0,1-2.7.75l-.66.12a2.39,2.39,0,0,1-.36,0h0c-.48.06-1,.09-1.45.11a1.5,1.5,0,0,0,0,3Z"/><path class="cls-3" d="M170.84,171.32a22.29,22.29,0,0,0,6.82-1.16,1.5,1.5,0,1,0-.8-2.89,22,22,0,0,1-3.1.8l-.42.06c-.09,0-.45.09-.08,0-.26,0-.53.06-.79.09-.54,0-1.08.07-1.63.08a1.5,1.5,0,1,0,0,3Z"/><path class="cls-3" d="M175,164.35l6.14.28a1.5,1.5,0,0,0,0-3l-6.14-.28a1.5,1.5,0,0,0-1.5,1.5,1.54,1.54,0,0,0,1.5,1.5Z"/><path class="cls-3" d="M131.37,168.2a94.23,94.23,0,0,0,9.89,1.17,1.5,1.5,0,0,0,1.5-1.5,1.53,1.53,0,0,0-1.5-1.5,85.4,85.4,0,0,1-9.09-1.06,1.5,1.5,0,0,0-.8,2.89Z"/><path class="cls-3" d="M121.05,176.29a24.84,24.84,0,0,0,6,1.17,1.51,1.51,0,0,0,1.5-1.5,1.54,1.54,0,0,0-1.5-1.5l-.74-.06-.31,0-.21,0,.19,0a4.43,4.43,0,0,1-.73-.11l-.68-.13a24.36,24.36,0,0,1-2.7-.72,1.5,1.5,0,1,0-.8,2.89Z"/><path class="cls-3" d="M107.08,161.25l5.31,2a1.51,1.51,0,0,0,1.84-1.05,1.55,1.55,0,0,0-1-1.85l-5.3-1.95a1.49,1.49,0,0,0-1.84,1,1.54,1.54,0,0,0,1,1.85Z"/><path class="cls-3" d="M84,146.22a11.33,11.33,0,0,0,6,6.5,1.62,1.62,0,0,0,1.16.15,1.5,1.5,0,0,0,.36-2.74,8.79,8.79,0,0,1-1.67-.93l-.18-.12-.13-.1.17.13c-.13-.12-.27-.22-.4-.33a8.2,8.2,0,0,1-.67-.65c-.22-.22-.42-.47-.62-.71.31.37,0,0-.09-.14a3.77,3.77,0,0,1-.26-.39,8,8,0,0,1-.46-.81c-.08-.15-.14-.31-.22-.46l.09.2-.07-.16-.09-.24a1.5,1.5,0,0,0-1.84-1,1.53,1.53,0,0,0-1,1.85Z"/><path class="cls-3" d="M72.56,125.57a18.73,18.73,0,0,0,2.37,6A1.5,1.5,0,0,0,77.52,130c-.26-.43-.5-.86-.73-1.3-.12-.24-.23-.48-.34-.72a2.21,2.21,0,0,1-.12-.27c.09.21.1.23,0,.08l-.07-.18a17.59,17.59,0,0,1-.84-2.85,1.51,1.51,0,0,0-1.85-1,1.54,1.54,0,0,0-1,1.84Z"/><path class="cls-3" d="M101.12,143.82a38.19,38.19,0,0,0,7.57,6.08,1.52,1.52,0,0,0,2.06-.54,1.54,1.54,0,0,0-.54-2.05c-.65-.39-1.28-.81-1.9-1.24l-1-.69-.21-.16c-.14-.1.17.13-.05,0l-.46-.36a37.19,37.19,0,0,1-3.4-3.12,1.51,1.51,0,0,0-2.12,0,1.53,1.53,0,0,0,0,2.12Z"/><path class="cls-3" d="M118.42,148.85a39.2,39.2,0,0,0,7.85,7.2,1.5,1.5,0,0,0,2-.54,1.53,1.53,0,0,0-.53-2c-.35-.24-.69-.49-1-.74l-.27-.19c-.22-.17.07.05-.06-.05l-.47-.37c-.66-.54-1.31-1.1-1.94-1.68a38.1,38.1,0,0,1-3.49-3.7,1.5,1.5,0,0,0-2.12,0,1.55,1.55,0,0,0,0,2.12Z"/><path class="cls-3" d="M111.28,137c.55.17,1.09.36,1.63.57l.43.17.21.08c-.18-.07-.19-.08,0,0l.79.35a27,27,0,0,1,3.06,1.73,1.51,1.51,0,0,0,2-.54,1.54,1.54,0,0,0-.54-2.05,26.58,26.58,0,0,0-6.8-3.19,1.5,1.5,0,1,0-.79,2.89Z"/><path class="cls-3" d="M106.53,124.67a65.16,65.16,0,0,1,7,2.17,1.5,1.5,0,0,0,1.85-1,1.55,1.55,0,0,0-1-1.85,65.86,65.86,0,0,0-7-2.17,1.5,1.5,0,0,0-.8,2.89Z"/><path class="cls-3" d="M88.47,128.08a19.13,19.13,0,0,0,5.12,7.36,1.5,1.5,0,0,0,2.13-2.12,17,17,0,0,1-1.43-1.39c-.22-.24-.44-.49-.64-.75l-.18-.22c-.13-.16.22.29,0,0l-.29-.4a18.32,18.32,0,0,1-1.05-1.69c-.16-.29-.31-.58-.45-.88l-.21-.45c-.09-.21,0,0,0,0a2.45,2.45,0,0,0-.12-.31,1.65,1.65,0,0,0-.69-.89,1.57,1.57,0,0,0-1.16-.16,1.53,1.53,0,0,0-1,1.85Z"/><path class="cls-3" d="M100.24,110.78c.58,0,1.16,0,1.74.07l.86.08.47,0c-.27,0,0,0,.13,0a23.1,23.1,0,0,1,3.39.77,1.5,1.5,0,0,0,.8-2.89,25.75,25.75,0,0,0-7.39-1.11,1.5,1.5,0,1,0,0,3Z"/><path class="cls-3" d="M83.52,109.92a20,20,0,0,0,5,8,1.5,1.5,0,1,0,2.12-2.13,17.72,17.72,0,0,1-1.45-1.55l-.15-.19c0-.05-.22-.28,0,0-.1-.12-.19-.25-.29-.39-.21-.29-.42-.59-.61-.9a17.63,17.63,0,0,1-1-1.8c-.08-.16-.16-.33-.23-.49l-.1-.22c-.08-.17.09.23,0,0s-.26-.68-.38-1a1.5,1.5,0,1,0-2.89.8Z"/><path class="cls-3" d="M62.45,107.31a26.42,26.42,0,0,0,1.19,9,1.5,1.5,0,1,0,2.89-.8c-.21-.67-.4-1.35-.55-2-.09-.36-.16-.74-.23-1.11,0-.16,0-.32-.08-.48s0-.21,0-.32h0a25.79,25.79,0,0,1-.17-4.3,1.51,1.51,0,0,0-1.5-1.5,1.54,1.54,0,0,0-1.5,1.5Z"/><path class="cls-3" d="M46.55,93.92a41.58,41.58,0,0,0,.61,8.77,1.52,1.52,0,0,0,1.85,1,1.56,1.56,0,0,0,1.05-1.85c-.06-.34-.12-.69-.17-1,0,0-.08-.54,0-.32l-.06-.48q-.12-1-.18-2a40.45,40.45,0,0,1-.05-4.12,1.5,1.5,0,0,0-1.5-1.5,1.52,1.52,0,0,0-1.5,1.5Z"/><path class="cls-3" d="M70.9,92.08l2.45,7.28a1.5,1.5,0,0,0,2.89-.8l-2.45-7.28a1.5,1.5,0,1,0-2.89.8Z"/><path class="cls-3" d="M87.75,94.13l2.79,5.3a1.5,1.5,0,1,0,2.59-1.51l-2.79-5.3a1.5,1.5,0,0,0-2-.54,1.53,1.53,0,0,0-.54,2Z"/><path class="cls-3" d="M101.72,90.45a21.05,21.05,0,0,1,1.9,1.12c.33.22.64.45.95.68.14.1.07,0,0,0l.22.18.45.37c.56.48,1.1,1,1.61,1.52.26.26.5.54.74.82s.25.29.38.44l.14.18c.25.31-.19-.25,0,.07a1.72,1.72,0,0,0,.9.69,1.57,1.57,0,0,0,1.16-.16,1.51,1.51,0,0,0,.53-2,22.91,22.91,0,0,0-7.49-6.42,1.5,1.5,0,0,0-1.52,2.59Z"/><path class="cls-3" d="M103.45,75.12l2.82,6.68a1.45,1.45,0,0,0,.9.69,1.52,1.52,0,0,0,1.16-.15,1.5,1.5,0,0,0,.69-.89,1.8,1.8,0,0,0-.16-1.16L106,73.61a1.52,1.52,0,0,0-.9-.69,1.5,1.5,0,0,0-1.84,1,1.7,1.7,0,0,0,.15,1.15Z"/><path class="cls-3" d="M90.82,56.17l3.64,3.61a1.53,1.53,0,0,0,1.06.44,1.5,1.5,0,0,0,1.06-.44,1.52,1.52,0,0,0,0-2.12l-3.64-3.61a1.54,1.54,0,0,0-1.06-.44,1.5,1.5,0,0,0-1.06,2.56Z"/><path class="cls-3" d="M87.45,71.82a27.25,27.25,0,0,1,2.74,8.69,1.53,1.53,0,0,0,1.5,1.5c.72,0,1.6-.67,1.5-1.5A30.31,30.31,0,0,0,90,70.3,1.51,1.51,0,0,0,88,69.77a1.53,1.53,0,0,0-.54,2Z"/><path class="cls-3" d="M73.27,75.42a13.73,13.73,0,0,1,.93,1.45c.14.27.28.54.41.82,0,.07.26.52.08.17a2.46,2.46,0,0,1,.14.38,13.1,13.1,0,0,1,.5,1.65c.06.28.11.56.16.84l0,.23c0-.21,0-.23,0-.06s0,.31,0,.46a1.5,1.5,0,1,0,3,0,14.66,14.66,0,0,0-2.7-7.46,1.54,1.54,0,0,0-2-.54,1.52,1.52,0,0,0-.54,2.06Z"/><path class="cls-3" d="M56.32,81.64a27,27,0,0,0,.89,8.49,1.51,1.51,0,0,0,1.84,1.05,1.53,1.53,0,0,0,1.05-1.85c-.17-.64-.32-1.29-.44-2-.07-.33-.11-.66-.17-1,0-.11,0-.1,0,0,0-.1,0-.21,0-.31s0-.3-.05-.46a25.45,25.45,0,0,1-.08-4,1.5,1.5,0,0,0-1.5-1.5,1.54,1.54,0,0,0-1.5,1.5Z"/><path class="cls-3" d="M39.92,71.2a25.62,25.62,0,0,0-1,9,1.5,1.5,0,0,0,3,0A24.59,24.59,0,0,1,42,76l.06-.56c0,.24,0-.24,0-.25,0-.34.12-.69.18-1,.15-.72.33-1.43.53-2.13a1.51,1.51,0,0,0-1-1.84,1.53,1.53,0,0,0-1.85,1Z"/><path class="cls-3" d="M31.66,57.71a20.3,20.3,0,0,0-4.4,10.53,1.5,1.5,0,0,0,1.5,1.5,1.54,1.54,0,0,0,1.5-1.5c0-.11,0-.21,0-.32,0,.14,0,.11,0-.08s.07-.42.11-.63c.08-.42.18-.83.29-1.24a18,18,0,0,1,.77-2.28c-.07.17.15-.32.17-.37s.18-.39.28-.58.35-.66.54-1a17.84,17.84,0,0,1,1.31-1.93,1.5,1.5,0,1,0-2.12-2.12Z"/><path class="cls-3" d="M43.2,55.41l-.28,2.79a1.5,1.5,0,0,0,1.5,1.5,1.54,1.54,0,0,0,1.06-.44l.24-.31a1.5,1.5,0,0,0,.2-.75l.28-2.79a1.51,1.51,0,0,0-2.56-1.07l-.23.31a1.43,1.43,0,0,0-.21.76Z"/><path class="cls-3" d="M46,37.54a10.37,10.37,0,0,0-4,2.23,10.16,10.16,0,0,0-2.63,3.78,1.48,1.48,0,0,0,.15,1.16,1.48,1.48,0,0,0,2.05.53,1.75,1.75,0,0,0,.69-.89c-.2.47,0-.07.09-.17s.13-.25.2-.37A6.71,6.71,0,0,1,43,43l.15-.21c-.27.37-.09.12,0,.05s.18-.22.28-.32a7.17,7.17,0,0,1,.68-.67c.12-.1.24-.19.35-.3-.07.08-.26.2-.07.06l.21-.15c.25-.17.51-.33.77-.48a4,4,0,0,1,.41-.21L46,40.7l-.09,0c.3-.12.6-.22.91-.31a1.5,1.5,0,1,0-.8-2.89Z"/><path class="cls-3" d="M57.62,38.2a26.4,26.4,0,0,0-6.16,4.7A1.5,1.5,0,1,0,53.58,45c.41-.43.85-.84,1.29-1.24.23-.21.47-.41.7-.6l.36-.29a1.12,1.12,0,0,0,.16-.13c-.11.11-.18.14,0,0a25.68,25.68,0,0,1,3.05-2,1.51,1.51,0,0,0,.54-2,1.53,1.53,0,0,0-2.05-.54Z"/><path class="cls-3" d="M77.86,50.78l1.12,5a1.51,1.51,0,0,0,1.84,1.05A1.53,1.53,0,0,0,81.87,55l-1.12-5a1.51,1.51,0,0,0-1.84-1,1.53,1.53,0,0,0-1,1.84Z"/><path class="cls-3" d="M67.75,36.18a14.14,14.14,0,0,1,1.44.45l.34.12c.43.17-.26-.12.17.07l.65.31a13,13,0,0,1,1.31.74l.6.4.29.21c.38.28-.21-.18.15.12a15.73,15.73,0,0,1,2.11,2l.22.28c.3.36-.15-.22.12.15.14.2.28.39.41.59a14.4,14.4,0,0,1,.8,1.37,1.51,1.51,0,0,0,2,.53,1.53,1.53,0,0,0,.54-2,16.39,16.39,0,0,0-10.4-8.23,1.5,1.5,0,1,0-.8,2.89Z"/></g></g></svg>